<mxfile host="app.diagrams.net" modified="2021-09-16T19:55:49.855Z" agent="5.0 (Windows NT 10.0; WOW64) AppleWebKit/537.36 (KHTML, like Gecko) Chrome/92.0.4515.131 Safari/537.36" etag="UgqtYOAPzWx71Ka6Tw86" version="15.2.5" type="github">
  <diagram id="Z2sbgiuxVYzdd4WMGRo3" name="Page-1">
    <mxGraphModel dx="2251" dy="1670" grid="1" gridSize="10" guides="1" tooltips="1" connect="1" arrows="1" fold="1" page="1" pageScale="1" pageWidth="850" pageHeight="1100" math="0" shadow="0">
      <root>
        <mxCell id="0" />
        <mxCell id="1" parent="0" />
        <mxCell id="QthP1SoMLuOVrfB_0ppR-65" value="" style="whiteSpace=wrap;html=1;aspect=fixed;" parent="1" vertex="1">
          <mxGeometry x="380" y="135" width="140" height="140" as="geometry" />
        </mxCell>
        <mxCell id="QthP1SoMLuOVrfB_0ppR-7" value="" style="endArrow=none;html=1;startArrow=none;" parent="1" source="QthP1SoMLuOVrfB_0ppR-47" edge="1">
          <mxGeometry width="50" height="50" relative="1" as="geometry">
            <mxPoint x="460" y="205" as="sourcePoint" />
            <mxPoint x="1640" y="205" as="targetPoint" />
          </mxGeometry>
        </mxCell>
        <mxCell id="QthP1SoMLuOVrfB_0ppR-8" value="start" style="ellipse;whiteSpace=wrap;html=1;aspect=fixed;" parent="1" vertex="1">
          <mxGeometry x="440" y="185" width="40" height="40" as="geometry" />
        </mxCell>
        <mxCell id="QthP1SoMLuOVrfB_0ppR-9" value="" style="endArrow=none;html=1;" parent="1" target="QthP1SoMLuOVrfB_0ppR-8" edge="1">
          <mxGeometry width="50" height="50" relative="1" as="geometry">
            <mxPoint x="460" y="205" as="sourcePoint" />
            <mxPoint x="960" y="205" as="targetPoint" />
          </mxGeometry>
        </mxCell>
        <mxCell id="lJJMukgnDEd9ykWkRaqT-6" style="edgeStyle=none;rounded=0;orthogonalLoop=1;jettySize=auto;html=1;exitX=0.5;exitY=1;exitDx=0;exitDy=0;" parent="1" source="QthP1SoMLuOVrfB_0ppR-12" edge="1">
          <mxGeometry relative="1" as="geometry">
            <mxPoint x="605" y="270" as="targetPoint" />
          </mxGeometry>
        </mxCell>
        <mxCell id="QthP1SoMLuOVrfB_0ppR-12" value="" style="whiteSpace=wrap;html=1;aspect=fixed;" parent="1" vertex="1">
          <mxGeometry x="580" y="180" width="50" height="50" as="geometry" />
        </mxCell>
        <mxCell id="QthP1SoMLuOVrfB_0ppR-13" value="" style="endArrow=none;html=1;startArrow=none;" parent="1" source="QthP1SoMLuOVrfB_0ppR-8" target="QthP1SoMLuOVrfB_0ppR-12" edge="1">
          <mxGeometry width="50" height="50" relative="1" as="geometry">
            <mxPoint x="480" y="205" as="sourcePoint" />
            <mxPoint x="960" y="205" as="targetPoint" />
          </mxGeometry>
        </mxCell>
        <mxCell id="EoJ9KSqt0x2r-B0GxFmA-37" style="edgeStyle=orthogonalEdgeStyle;rounded=0;orthogonalLoop=1;jettySize=auto;html=1;exitX=0.25;exitY=1;exitDx=0;exitDy=0;" edge="1" parent="1" source="QthP1SoMLuOVrfB_0ppR-14">
          <mxGeometry relative="1" as="geometry">
            <mxPoint x="753" y="560" as="targetPoint" />
          </mxGeometry>
        </mxCell>
        <mxCell id="QthP1SoMLuOVrfB_0ppR-14" value="" style="whiteSpace=wrap;html=1;aspect=fixed;" parent="1" vertex="1">
          <mxGeometry x="740" y="180" width="50" height="50" as="geometry" />
        </mxCell>
        <mxCell id="QthP1SoMLuOVrfB_0ppR-16" value="" style="endArrow=none;html=1;startArrow=none;" parent="1" source="QthP1SoMLuOVrfB_0ppR-12" target="QthP1SoMLuOVrfB_0ppR-14" edge="1">
          <mxGeometry width="50" height="50" relative="1" as="geometry">
            <mxPoint x="630" y="205" as="sourcePoint" />
            <mxPoint x="960" y="205" as="targetPoint" />
          </mxGeometry>
        </mxCell>
        <mxCell id="QthP1SoMLuOVrfB_0ppR-17" value="" style="whiteSpace=wrap;html=1;aspect=fixed;" parent="1" vertex="1">
          <mxGeometry x="900" y="180" width="50" height="50" as="geometry" />
        </mxCell>
        <mxCell id="QthP1SoMLuOVrfB_0ppR-19" value="" style="endArrow=none;html=1;startArrow=none;" parent="1" source="QthP1SoMLuOVrfB_0ppR-14" target="QthP1SoMLuOVrfB_0ppR-17" edge="1">
          <mxGeometry width="50" height="50" relative="1" as="geometry">
            <mxPoint x="790" y="205" as="sourcePoint" />
            <mxPoint x="1240" y="205" as="targetPoint" />
          </mxGeometry>
        </mxCell>
        <mxCell id="QthP1SoMLuOVrfB_0ppR-20" value="enrichment" style="text;html=1;align=center;verticalAlign=middle;resizable=0;points=[];autosize=1;strokeColor=none;fillColor=none;" parent="1" vertex="1">
          <mxGeometry x="890" y="150" width="70" height="20" as="geometry" />
        </mxCell>
        <mxCell id="QthP1SoMLuOVrfB_0ppR-21" value="&lt;span&gt;rule engine&lt;/span&gt;" style="text;html=1;align=center;verticalAlign=middle;resizable=0;points=[];autosize=1;strokeColor=none;fillColor=none;" parent="1" vertex="1">
          <mxGeometry x="730" y="150" width="70" height="20" as="geometry" />
        </mxCell>
        <mxCell id="QthP1SoMLuOVrfB_0ppR-22" value="&lt;span&gt;trade service&lt;/span&gt;" style="text;html=1;align=center;verticalAlign=middle;resizable=0;points=[];autosize=1;strokeColor=none;fillColor=none;" parent="1" vertex="1">
          <mxGeometry x="565" y="150" width="80" height="20" as="geometry" />
        </mxCell>
        <mxCell id="QthP1SoMLuOVrfB_0ppR-23" value="" style="whiteSpace=wrap;html=1;aspect=fixed;" parent="1" vertex="1">
          <mxGeometry x="1050" y="180" width="50" height="50" as="geometry" />
        </mxCell>
        <mxCell id="QthP1SoMLuOVrfB_0ppR-24" value="" style="endArrow=none;html=1;startArrow=none;" parent="1" source="QthP1SoMLuOVrfB_0ppR-17" target="QthP1SoMLuOVrfB_0ppR-23" edge="1">
          <mxGeometry width="50" height="50" relative="1" as="geometry">
            <mxPoint x="950" y="205" as="sourcePoint" />
            <mxPoint x="1240" y="205" as="targetPoint" />
          </mxGeometry>
        </mxCell>
        <mxCell id="QthP1SoMLuOVrfB_0ppR-25" value="document service" style="text;html=1;align=center;verticalAlign=middle;resizable=0;points=[];autosize=1;strokeColor=none;fillColor=none;" parent="1" vertex="1">
          <mxGeometry x="1020" y="150" width="110" height="20" as="geometry" />
        </mxCell>
        <mxCell id="QthP1SoMLuOVrfB_0ppR-27" value="pre-dispatch" style="text;html=1;align=center;verticalAlign=middle;resizable=0;points=[];autosize=1;strokeColor=none;fillColor=none;" parent="1" vertex="1">
          <mxGeometry x="1195" y="150" width="80" height="20" as="geometry" />
        </mxCell>
        <mxCell id="QthP1SoMLuOVrfB_0ppR-29" value="dispatch" style="text;html=1;align=center;verticalAlign=middle;resizable=0;points=[];autosize=1;strokeColor=none;fillColor=none;" parent="1" vertex="1">
          <mxGeometry x="1340" y="150" width="60" height="20" as="geometry" />
        </mxCell>
        <mxCell id="QthP1SoMLuOVrfB_0ppR-47" value="" style="whiteSpace=wrap;html=1;aspect=fixed;" parent="1" vertex="1">
          <mxGeometry x="1490" y="180" width="50" height="50" as="geometry" />
        </mxCell>
        <mxCell id="QthP1SoMLuOVrfB_0ppR-48" value="" style="endArrow=none;html=1;startArrow=none;" parent="1" source="QthP1SoMLuOVrfB_0ppR-23" target="QthP1SoMLuOVrfB_0ppR-47" edge="1">
          <mxGeometry width="50" height="50" relative="1" as="geometry">
            <mxPoint x="1100" y="205" as="sourcePoint" />
            <mxPoint x="1640" y="205" as="targetPoint" />
          </mxGeometry>
        </mxCell>
        <mxCell id="QthP1SoMLuOVrfB_0ppR-49" value="initiate shark service" style="text;html=1;align=center;verticalAlign=middle;resizable=0;points=[];autosize=1;strokeColor=none;fillColor=none;" parent="1" vertex="1">
          <mxGeometry x="1470" y="150" width="120" height="20" as="geometry" />
        </mxCell>
        <mxCell id="QthP1SoMLuOVrfB_0ppR-50" value="end" style="ellipse;whiteSpace=wrap;html=1;aspect=fixed;" parent="1" vertex="1">
          <mxGeometry x="1620" y="180" width="40" height="40" as="geometry" />
        </mxCell>
        <mxCell id="QthP1SoMLuOVrfB_0ppR-51" value="" style="whiteSpace=wrap;html=1;aspect=fixed;" parent="1" vertex="1">
          <mxGeometry x="1210" y="180" width="50" height="50" as="geometry" />
        </mxCell>
        <mxCell id="QthP1SoMLuOVrfB_0ppR-52" value="" style="whiteSpace=wrap;html=1;aspect=fixed;" parent="1" vertex="1">
          <mxGeometry x="1345" y="180" width="50" height="50" as="geometry" />
        </mxCell>
        <mxCell id="QthP1SoMLuOVrfB_0ppR-54" value="&lt;b&gt;OUTBOUND PROCESS&lt;/b&gt;" style="text;html=1;strokeColor=none;fillColor=none;align=center;verticalAlign=middle;whiteSpace=wrap;rounded=0;" parent="1" vertex="1">
          <mxGeometry x="70" y="-420" width="180" height="50" as="geometry" />
        </mxCell>
        <mxCell id="QthP1SoMLuOVrfB_0ppR-55" value="&lt;b&gt;RAZOR&lt;/b&gt;" style="whiteSpace=wrap;html=1;aspect=fixed;" parent="1" vertex="1">
          <mxGeometry x="65" y="-225" width="145" height="145" as="geometry" />
        </mxCell>
        <mxCell id="QthP1SoMLuOVrfB_0ppR-56" value="External Solace" style="shape=process;whiteSpace=wrap;html=1;backgroundOutline=1;" parent="1" vertex="1">
          <mxGeometry x="80" y="135" width="130" height="145" as="geometry" />
        </mxCell>
        <mxCell id="QthP1SoMLuOVrfB_0ppR-63" value="scbml files" style="text;html=1;align=center;verticalAlign=middle;resizable=0;points=[];autosize=1;strokeColor=none;fillColor=none;" parent="1" vertex="1">
          <mxGeometry x="270" y="-260" width="70" height="20" as="geometry" />
        </mxCell>
        <mxCell id="QthP1SoMLuOVrfB_0ppR-66" value="Camunda" style="text;html=1;align=center;verticalAlign=middle;resizable=0;points=[];autosize=1;strokeColor=none;fillColor=none;" parent="1" vertex="1">
          <mxGeometry x="410" y="110" width="70" height="20" as="geometry" />
        </mxCell>
        <mxCell id="QthP1SoMLuOVrfB_0ppR-77" value="consumer-service" style="whiteSpace=wrap;html=1;aspect=fixed;" parent="1" vertex="1">
          <mxGeometry x="386.25" y="-225" width="117.5" height="117.5" as="geometry" />
        </mxCell>
        <mxCell id="QthP1SoMLuOVrfB_0ppR-79" value="Internal solace" style="shape=process;whiteSpace=wrap;html=1;backgroundOutline=1;" parent="1" vertex="1">
          <mxGeometry x="386.25" y="-60" width="117.5" height="110" as="geometry" />
        </mxCell>
        <mxCell id="QthP1SoMLuOVrfB_0ppR-80" value="" style="endArrow=none;dashed=1;html=1;dashPattern=1 3;strokeWidth=2;exitX=0.5;exitY=1;exitDx=0;exitDy=0;entryX=0.446;entryY=0.007;entryDx=0;entryDy=0;entryPerimeter=0;" parent="1" source="QthP1SoMLuOVrfB_0ppR-55" target="QthP1SoMLuOVrfB_0ppR-56" edge="1">
          <mxGeometry width="50" height="50" relative="1" as="geometry">
            <mxPoint x="480" y="-30" as="sourcePoint" />
            <mxPoint x="530" y="-80" as="targetPoint" />
          </mxGeometry>
        </mxCell>
        <mxCell id="QthP1SoMLuOVrfB_0ppR-81" value="" style="html=1;shadow=0;dashed=0;align=center;verticalAlign=middle;shape=mxgraph.arrows2.arrow;dy=0.6;dx=40;direction=south;notch=0;" parent="1" vertex="1">
          <mxGeometry x="70" y="-20" width="50" height="90" as="geometry" />
        </mxCell>
        <mxCell id="QthP1SoMLuOVrfB_0ppR-84" value="" style="endArrow=none;dashed=1;html=1;dashPattern=1 3;strokeWidth=2;entryX=0.009;entryY=0.57;entryDx=0;entryDy=0;entryPerimeter=0;" parent="1" target="QthP1SoMLuOVrfB_0ppR-77" edge="1">
          <mxGeometry width="50" height="50" relative="1" as="geometry">
            <mxPoint x="210" y="-158" as="sourcePoint" />
            <mxPoint x="530" y="70" as="targetPoint" />
          </mxGeometry>
        </mxCell>
        <mxCell id="QthP1SoMLuOVrfB_0ppR-85" value="" style="html=1;shadow=0;dashed=0;align=center;verticalAlign=middle;shape=mxgraph.arrows2.arrow;dy=0.6;dx=40;direction=south;notch=0;rotation=-90;" parent="1" vertex="1">
          <mxGeometry x="270" y="-250" width="50" height="90" as="geometry" />
        </mxCell>
        <mxCell id="QthP1SoMLuOVrfB_0ppR-86" value="" style="endArrow=none;dashed=1;html=1;dashPattern=1 3;strokeWidth=2;exitX=0;exitY=0.5;exitDx=0;exitDy=0;entryX=1;entryY=0.5;entryDx=0;entryDy=0;" parent="1" source="QthP1SoMLuOVrfB_0ppR-65" target="QthP1SoMLuOVrfB_0ppR-56" edge="1">
          <mxGeometry width="50" height="50" relative="1" as="geometry">
            <mxPoint x="290" y="8.980000000000004" as="sourcePoint" />
            <mxPoint x="290.48" y="224.99500000000012" as="targetPoint" />
          </mxGeometry>
        </mxCell>
        <mxCell id="QthP1SoMLuOVrfB_0ppR-88" value="" style="endArrow=classic;html=1;" parent="1" edge="1">
          <mxGeometry width="50" height="50" relative="1" as="geometry">
            <mxPoint x="-270" y="-350" as="sourcePoint" />
            <mxPoint x="-270" y="-40" as="targetPoint" />
          </mxGeometry>
        </mxCell>
        <mxCell id="QthP1SoMLuOVrfB_0ppR-89" value="" style="endArrow=classic;html=1;" parent="1" edge="1">
          <mxGeometry width="50" height="50" relative="1" as="geometry">
            <mxPoint x="1850" y="-225" as="sourcePoint" />
            <mxPoint x="1850" y="85" as="targetPoint" />
          </mxGeometry>
        </mxCell>
        <mxCell id="QthP1SoMLuOVrfB_0ppR-90" value="scbml files" style="text;html=1;align=center;verticalAlign=middle;resizable=0;points=[];autosize=1;strokeColor=none;fillColor=none;" parent="1" vertex="1">
          <mxGeometry x="160" y="15" width="70" height="20" as="geometry" />
        </mxCell>
        <mxCell id="QthP1SoMLuOVrfB_0ppR-91" value="" style="endArrow=none;dashed=1;html=1;dashPattern=1 3;strokeWidth=2;entryX=0.5;entryY=1;entryDx=0;entryDy=0;exitX=0.5;exitY=0;exitDx=0;exitDy=0;" parent="1" source="QthP1SoMLuOVrfB_0ppR-79" target="QthP1SoMLuOVrfB_0ppR-77" edge="1">
          <mxGeometry width="50" height="50" relative="1" as="geometry">
            <mxPoint x="220" y="-148" as="sourcePoint" />
            <mxPoint x="397.3074999999999" y="-148.0250000000001" as="targetPoint" />
          </mxGeometry>
        </mxCell>
        <mxCell id="QthP1SoMLuOVrfB_0ppR-92" value="" style="endArrow=none;dashed=1;html=1;dashPattern=1 3;strokeWidth=2;entryX=0.449;entryY=-0.018;entryDx=0;entryDy=0;entryPerimeter=0;" parent="1" target="QthP1SoMLuOVrfB_0ppR-65" edge="1">
          <mxGeometry width="50" height="50" relative="1" as="geometry">
            <mxPoint x="443" y="50" as="sourcePoint" />
            <mxPoint x="440" y="137" as="targetPoint" />
            <Array as="points" />
          </mxGeometry>
        </mxCell>
        <mxCell id="QthP1SoMLuOVrfB_0ppR-93" value="" style="html=1;shadow=0;dashed=0;align=center;verticalAlign=middle;shape=mxgraph.arrows2.arrow;dy=0.6;dx=40;direction=south;notch=0;rotation=0;" parent="1" vertex="1">
          <mxGeometry x="540" y="-150" width="30" height="180" as="geometry" />
        </mxCell>
        <mxCell id="lJJMukgnDEd9ykWkRaqT-2" value="API :&amp;nbsp; /&lt;span style=&quot;color: rgb(0 , 128 , 0) ; font-weight: bold ; background-color: rgb(255 , 255 , 255) ; font-family: &amp;#34;source code pro&amp;#34; ; font-size: 9pt&quot;&gt;outboundTradeInit&lt;/span&gt;" style="text;html=1;align=center;verticalAlign=middle;resizable=0;points=[];autosize=1;strokeColor=none;fillColor=none;" parent="1" vertex="1">
          <mxGeometry x="490" y="80" width="150" height="20" as="geometry" />
        </mxCell>
        <mxCell id="lJJMukgnDEd9ykWkRaqT-3" value="Question: consuming from topic?" style="text;html=1;align=center;verticalAlign=middle;resizable=0;points=[];autosize=1;strokeColor=none;fillColor=none;" parent="1" vertex="1">
          <mxGeometry x="600" y="45" width="190" height="20" as="geometry" />
        </mxCell>
        <mxCell id="lJJMukgnDEd9ykWkRaqT-4" value="" style="shape=cylinder3;whiteSpace=wrap;html=1;boundedLbl=1;backgroundOutline=1;size=15;" parent="1" vertex="1">
          <mxGeometry x="580" y="270" width="50" height="55" as="geometry" />
        </mxCell>
        <mxCell id="lJJMukgnDEd9ykWkRaqT-7" value="+static data" style="text;html=1;align=center;verticalAlign=middle;resizable=0;points=[];autosize=1;strokeColor=none;fillColor=none;" parent="1" vertex="1">
          <mxGeometry x="620" y="240" width="80" height="20" as="geometry" />
        </mxCell>
        <mxCell id="EoJ9KSqt0x2r-B0GxFmA-1" value="rule_book" style="shape=table;startSize=30;container=1;collapsible=0;childLayout=tableLayout;fontStyle=1;align=center;pointerEvents=1;" vertex="1" parent="1">
          <mxGeometry x="330" y="750" width="245" height="140" as="geometry" />
        </mxCell>
        <mxCell id="EoJ9KSqt0x2r-B0GxFmA-2" value="" style="shape=partialRectangle;html=1;whiteSpace=wrap;collapsible=0;dropTarget=0;pointerEvents=0;fillColor=none;top=0;left=0;bottom=0;right=0;points=[[0,0.5],[1,0.5]];portConstraint=eastwest;" vertex="1" parent="EoJ9KSqt0x2r-B0GxFmA-1">
          <mxGeometry y="30" width="245" height="37" as="geometry" />
        </mxCell>
        <mxCell id="EoJ9KSqt0x2r-B0GxFmA-3" value="product" style="shape=partialRectangle;html=1;whiteSpace=wrap;connectable=0;fillColor=none;top=0;left=0;bottom=0;right=0;overflow=hidden;pointerEvents=1;" vertex="1" parent="EoJ9KSqt0x2r-B0GxFmA-2">
          <mxGeometry width="82" height="37" as="geometry" />
        </mxCell>
        <mxCell id="EoJ9KSqt0x2r-B0GxFmA-4" value="version" style="shape=partialRectangle;html=1;whiteSpace=wrap;connectable=0;fillColor=none;top=0;left=0;bottom=0;right=0;overflow=hidden;pointerEvents=1;" vertex="1" parent="EoJ9KSqt0x2r-B0GxFmA-2">
          <mxGeometry x="82" width="81" height="37" as="geometry" />
        </mxCell>
        <mxCell id="EoJ9KSqt0x2r-B0GxFmA-5" value="rule" style="shape=partialRectangle;html=1;whiteSpace=wrap;connectable=0;fillColor=none;top=0;left=0;bottom=0;right=0;overflow=hidden;pointerEvents=1;" vertex="1" parent="EoJ9KSqt0x2r-B0GxFmA-2">
          <mxGeometry x="163" width="82" height="37" as="geometry" />
        </mxCell>
        <mxCell id="EoJ9KSqt0x2r-B0GxFmA-6" value="" style="shape=partialRectangle;html=1;whiteSpace=wrap;collapsible=0;dropTarget=0;pointerEvents=0;fillColor=none;top=0;left=0;bottom=0;right=0;points=[[0,0.5],[1,0.5]];portConstraint=eastwest;" vertex="1" parent="EoJ9KSqt0x2r-B0GxFmA-1">
          <mxGeometry y="67" width="245" height="36" as="geometry" />
        </mxCell>
        <mxCell id="EoJ9KSqt0x2r-B0GxFmA-7" value="FX" style="shape=partialRectangle;html=1;whiteSpace=wrap;connectable=0;fillColor=none;top=0;left=0;bottom=0;right=0;overflow=hidden;pointerEvents=1;" vertex="1" parent="EoJ9KSqt0x2r-B0GxFmA-6">
          <mxGeometry width="82" height="36" as="geometry" />
        </mxCell>
        <mxCell id="EoJ9KSqt0x2r-B0GxFmA-8" value="1" style="shape=partialRectangle;html=1;whiteSpace=wrap;connectable=0;fillColor=none;top=0;left=0;bottom=0;right=0;overflow=hidden;pointerEvents=1;" vertex="1" parent="EoJ9KSqt0x2r-B0GxFmA-6">
          <mxGeometry x="82" width="81" height="36" as="geometry" />
        </mxCell>
        <mxCell id="EoJ9KSqt0x2r-B0GxFmA-9" value="binary drl file" style="shape=partialRectangle;html=1;whiteSpace=wrap;connectable=0;fillColor=none;top=0;left=0;bottom=0;right=0;overflow=hidden;pointerEvents=1;" vertex="1" parent="EoJ9KSqt0x2r-B0GxFmA-6">
          <mxGeometry x="163" width="82" height="36" as="geometry" />
        </mxCell>
        <mxCell id="EoJ9KSqt0x2r-B0GxFmA-10" value="" style="shape=partialRectangle;html=1;whiteSpace=wrap;collapsible=0;dropTarget=0;pointerEvents=0;fillColor=none;top=0;left=0;bottom=0;right=0;points=[[0,0.5],[1,0.5]];portConstraint=eastwest;" vertex="1" parent="EoJ9KSqt0x2r-B0GxFmA-1">
          <mxGeometry y="103" width="245" height="37" as="geometry" />
        </mxCell>
        <mxCell id="EoJ9KSqt0x2r-B0GxFmA-11" value="MM" style="shape=partialRectangle;html=1;whiteSpace=wrap;connectable=0;fillColor=none;top=0;left=0;bottom=0;right=0;overflow=hidden;pointerEvents=1;" vertex="1" parent="EoJ9KSqt0x2r-B0GxFmA-10">
          <mxGeometry width="82" height="37" as="geometry" />
        </mxCell>
        <mxCell id="EoJ9KSqt0x2r-B0GxFmA-12" value="1" style="shape=partialRectangle;html=1;whiteSpace=wrap;connectable=0;fillColor=none;top=0;left=0;bottom=0;right=0;overflow=hidden;pointerEvents=1;" vertex="1" parent="EoJ9KSqt0x2r-B0GxFmA-10">
          <mxGeometry x="82" width="81" height="37" as="geometry" />
        </mxCell>
        <mxCell id="EoJ9KSqt0x2r-B0GxFmA-13" value="&lt;span&gt;binary drl file&lt;/span&gt;" style="shape=partialRectangle;html=1;whiteSpace=wrap;connectable=0;fillColor=none;top=0;left=0;bottom=0;right=0;overflow=hidden;pointerEvents=1;" vertex="1" parent="EoJ9KSqt0x2r-B0GxFmA-10">
          <mxGeometry x="163" width="82" height="37" as="geometry" />
        </mxCell>
        <mxCell id="EoJ9KSqt0x2r-B0GxFmA-33" value="" style="shape=cylinder3;whiteSpace=wrap;html=1;boundedLbl=1;backgroundOutline=1;size=15;" vertex="1" parent="1">
          <mxGeometry x="330" y="900" width="60" height="80" as="geometry" />
        </mxCell>
        <mxCell id="EoJ9KSqt0x2r-B0GxFmA-36" value="" style="endArrow=classic;html=1;" edge="1" parent="1">
          <mxGeometry width="50" height="50" relative="1" as="geometry">
            <mxPoint x="780" y="560" as="sourcePoint" />
            <mxPoint x="780" y="230" as="targetPoint" />
          </mxGeometry>
        </mxCell>
        <mxCell id="EoJ9KSqt0x2r-B0GxFmA-38" value="&lt;blockquote style=&quot;margin: 0 0 0 40px ; border: none ; padding: 0px&quot;&gt;&lt;div class=&quot;line number1 index0 alt2&quot; style=&quot;margin: 0px ; padding: 0px 1em ; border-radius: 0px ; background: none rgb(255 , 255 , 255) ; border: 0px ; float: none ; height: auto ; line-height: 20px ; outline: 0px ; overflow: visible ; position: static ; text-align: left ; vertical-align: baseline ; width: auto ; box-sizing: content-box ; font-family: &amp;#34;consolas&amp;#34; , &amp;#34;bitstream vera sans mono&amp;#34; , &amp;#34;courier new&amp;#34; , &amp;#34;courier&amp;#34; , monospace ; font-size: 14px ; min-height: inherit ; color: rgb(51 , 51 , 51)&quot;&gt;&lt;code class=&quot;py plain&quot; style=&quot;font-family: &amp;#34;consolas&amp;#34; , &amp;#34;bitstream vera sans mono&amp;#34; , &amp;#34;courier new&amp;#34; , &amp;#34;courier&amp;#34; , monospace ; border-radius: 0px ; background: none ; border: 0px ; float: none ; height: auto ; line-height: 20px ; margin: 0px ; outline: 0px ; overflow: visible ; padding: 0px ; position: static ; vertical-align: baseline ; width: auto ; box-sizing: content-box ; min-height: inherit ; color: black&quot;&gt;{&lt;/code&gt;&lt;/div&gt;&lt;div class=&quot;line number2 index1 alt1&quot; style=&quot;margin: 0px ; padding: 0px 1em ; border-radius: 0px ; background: none rgb(255 , 255 , 255) ; border: 0px ; float: none ; height: auto ; line-height: 20px ; outline: 0px ; overflow: visible ; position: static ; text-align: left ; vertical-align: baseline ; width: auto ; box-sizing: content-box ; font-family: &amp;#34;consolas&amp;#34; , &amp;#34;bitstream vera sans mono&amp;#34; , &amp;#34;courier new&amp;#34; , &amp;#34;courier&amp;#34; , monospace ; font-size: 14px ; min-height: inherit ; color: rgb(51 , 51 , 51)&quot;&gt;&lt;code class=&quot;py spaces&quot; style=&quot;font-family: &amp;#34;consolas&amp;#34; , &amp;#34;bitstream vera sans mono&amp;#34; , &amp;#34;courier new&amp;#34; , &amp;#34;courier&amp;#34; , monospace ; border-radius: 0px ; background: none ; border: 0px ; float: none ; height: auto ; line-height: 20px ; margin: 0px ; outline: 0px ; overflow: visible ; padding: 0px ; position: static ; vertical-align: baseline ; width: auto ; box-sizing: content-box ; min-height: inherit&quot;&gt;&amp;nbsp;&amp;nbsp;&lt;/code&gt;&lt;code class=&quot;py string&quot; style=&quot;font-family: &amp;#34;consolas&amp;#34; , &amp;#34;bitstream vera sans mono&amp;#34; , &amp;#34;courier new&amp;#34; , &amp;#34;courier&amp;#34; , monospace ; border-radius: 0px ; background: none ; border: 0px ; float: none ; height: auto ; line-height: 20px ; margin: 0px ; outline: 0px ; overflow: visible ; padding: 0px ; position: static ; vertical-align: baseline ; width: auto ; box-sizing: content-box ; min-height: inherit ; color: rgb(42 , 0 , 255)&quot;&gt;&quot;executionType&quot;&lt;/code&gt;&lt;code class=&quot;py plain&quot; style=&quot;font-family: &amp;#34;consolas&amp;#34; , &amp;#34;bitstream vera sans mono&amp;#34; , &amp;#34;courier new&amp;#34; , &amp;#34;courier&amp;#34; , monospace ; border-radius: 0px ; background: none ; border: 0px ; float: none ; height: auto ; line-height: 20px ; margin: 0px ; outline: 0px ; overflow: visible ; padding: 0px ; position: static ; vertical-align: baseline ; width: auto ; box-sizing: content-box ; min-height: inherit ; color: black&quot;&gt;:&amp;nbsp;&lt;/code&gt;&lt;code class=&quot;py string&quot; style=&quot;font-family: &amp;#34;consolas&amp;#34; , &amp;#34;bitstream vera sans mono&amp;#34; , &amp;#34;courier new&amp;#34; , &amp;#34;courier&amp;#34; , monospace ; border-radius: 0px ; background: none ; border: 0px ; float: none ; height: auto ; line-height: 20px ; margin: 0px ; outline: 0px ; overflow: visible ; padding: 0px ; position: static ; vertical-align: baseline ; width: auto ; box-sizing: content-box ; min-height: inherit ; color: rgb(42 , 0 , 255)&quot;&gt;&quot;suppression, non_stp&quot;&lt;/code&gt;&lt;code class=&quot;py plain&quot; style=&quot;font-family: &amp;#34;consolas&amp;#34; , &amp;#34;bitstream vera sans mono&amp;#34; , &amp;#34;courier new&amp;#34; , &amp;#34;courier&amp;#34; , monospace ; border-radius: 0px ; background: none ; border: 0px ; float: none ; height: auto ; line-height: 20px ; margin: 0px ; outline: 0px ; overflow: visible ; padding: 0px ; position: static ; vertical-align: baseline ; width: auto ; box-sizing: content-box ; min-height: inherit ; color: black&quot;&gt;,&lt;/code&gt;&lt;/div&gt;&lt;div class=&quot;line number3 index2 alt2&quot; style=&quot;margin: 0px ; padding: 0px 1em ; border-radius: 0px ; background: none rgb(255 , 255 , 255) ; border: 0px ; float: none ; height: auto ; line-height: 20px ; outline: 0px ; overflow: visible ; position: static ; text-align: left ; vertical-align: baseline ; width: auto ; box-sizing: content-box ; font-family: &amp;#34;consolas&amp;#34; , &amp;#34;bitstream vera sans mono&amp;#34; , &amp;#34;courier new&amp;#34; , &amp;#34;courier&amp;#34; , monospace ; font-size: 14px ; min-height: inherit ; color: rgb(51 , 51 , 51)&quot;&gt;&lt;code class=&quot;py spaces&quot; style=&quot;font-family: &amp;#34;consolas&amp;#34; , &amp;#34;bitstream vera sans mono&amp;#34; , &amp;#34;courier new&amp;#34; , &amp;#34;courier&amp;#34; , monospace ; border-radius: 0px ; background: none ; border: 0px ; float: none ; height: auto ; line-height: 20px ; margin: 0px ; outline: 0px ; overflow: visible ; padding: 0px ; position: static ; vertical-align: baseline ; width: auto ; box-sizing: content-box ; min-height: inherit&quot;&gt;&amp;nbsp;&amp;nbsp;&lt;/code&gt;&lt;code class=&quot;py string&quot; style=&quot;font-family: &amp;#34;consolas&amp;#34; , &amp;#34;bitstream vera sans mono&amp;#34; , &amp;#34;courier new&amp;#34; , &amp;#34;courier&amp;#34; , monospace ; border-radius: 0px ; background: none ; border: 0px ; float: none ; height: auto ; line-height: 20px ; margin: 0px ; outline: 0px ; overflow: visible ; padding: 0px ; position: static ; vertical-align: baseline ; width: auto ; box-sizing: content-box ; min-height: inherit ; color: rgb(42 , 0 , 255)&quot;&gt;&quot;product&quot;&lt;/code&gt;&lt;code class=&quot;py plain&quot; style=&quot;font-family: &amp;#34;consolas&amp;#34; , &amp;#34;bitstream vera sans mono&amp;#34; , &amp;#34;courier new&amp;#34; , &amp;#34;courier&amp;#34; , monospace ; border-radius: 0px ; background: none ; border: 0px ; float: none ; height: auto ; line-height: 20px ; margin: 0px ; outline: 0px ; overflow: visible ; padding: 0px ; position: static ; vertical-align: baseline ; width: auto ; box-sizing: content-box ; min-height: inherit ; color: black&quot;&gt;:&amp;nbsp;&lt;/code&gt;&lt;code class=&quot;py string&quot; style=&quot;font-family: &amp;#34;consolas&amp;#34; , &amp;#34;bitstream vera sans mono&amp;#34; , &amp;#34;courier new&amp;#34; , &amp;#34;courier&amp;#34; , monospace ; border-radius: 0px ; background: none ; border: 0px ; float: none ; height: auto ; line-height: 20px ; margin: 0px ; outline: 0px ; overflow: visible ; padding: 0px ; position: static ; vertical-align: baseline ; width: auto ; box-sizing: content-box ; min-height: inherit ; color: rgb(42 , 0 , 255)&quot;&gt;&quot;FX/MM&quot;&lt;/code&gt;&lt;code class=&quot;py plain&quot; style=&quot;font-family: &amp;#34;consolas&amp;#34; , &amp;#34;bitstream vera sans mono&amp;#34; , &amp;#34;courier new&amp;#34; , &amp;#34;courier&amp;#34; , monospace ; border-radius: 0px ; background: none ; border: 0px ; float: none ; height: auto ; line-height: 20px ; margin: 0px ; outline: 0px ; overflow: visible ; padding: 0px ; position: static ; vertical-align: baseline ; width: auto ; box-sizing: content-box ; min-height: inherit ; color: black&quot;&gt;,&lt;/code&gt;&lt;/div&gt;&lt;div class=&quot;line number4 index3 alt1&quot; style=&quot;margin: 0px ; padding: 0px 1em ; border-radius: 0px ; background: none rgb(255 , 255 , 255) ; border: 0px ; float: none ; height: auto ; line-height: 20px ; outline: 0px ; overflow: visible ; position: static ; text-align: left ; vertical-align: baseline ; width: auto ; box-sizing: content-box ; font-family: &amp;#34;consolas&amp;#34; , &amp;#34;bitstream vera sans mono&amp;#34; , &amp;#34;courier new&amp;#34; , &amp;#34;courier&amp;#34; , monospace ; font-size: 14px ; min-height: inherit ; color: rgb(51 , 51 , 51)&quot;&gt;&lt;code class=&quot;py spaces&quot; style=&quot;font-family: &amp;#34;consolas&amp;#34; , &amp;#34;bitstream vera sans mono&amp;#34; , &amp;#34;courier new&amp;#34; , &amp;#34;courier&amp;#34; , monospace ; border-radius: 0px ; background: none ; border: 0px ; float: none ; height: auto ; line-height: 20px ; margin: 0px ; outline: 0px ; overflow: visible ; padding: 0px ; position: static ; vertical-align: baseline ; width: auto ; box-sizing: content-box ; min-height: inherit&quot;&gt;&amp;nbsp;&amp;nbsp;&lt;/code&gt;&lt;code class=&quot;py string&quot; style=&quot;font-family: &amp;#34;consolas&amp;#34; , &amp;#34;bitstream vera sans mono&amp;#34; , &amp;#34;courier new&amp;#34; , &amp;#34;courier&amp;#34; , monospace ; border-radius: 0px ; background: none ; border: 0px ; float: none ; height: auto ; line-height: 20px ; margin: 0px ; outline: 0px ; overflow: visible ; padding: 0px ; position: static ; vertical-align: baseline ; width: auto ; box-sizing: content-box ; min-height: inherit ; color: rgb(42 , 0 , 255)&quot;&gt;&quot;scbml&quot;&lt;/code&gt;&lt;code class=&quot;py plain&quot; style=&quot;font-family: &amp;#34;consolas&amp;#34; , &amp;#34;bitstream vera sans mono&amp;#34; , &amp;#34;courier new&amp;#34; , &amp;#34;courier&amp;#34; , monospace ; border-radius: 0px ; background: none ; border: 0px ; float: none ; height: auto ; line-height: 20px ; margin: 0px ; outline: 0px ; overflow: visible ; padding: 0px ; position: static ; vertical-align: baseline ; width: auto ; box-sizing: content-box ; min-height: inherit ; color: black&quot;&gt;:&amp;nbsp;&lt;/code&gt;&lt;code class=&quot;py string&quot; style=&quot;font-family: &amp;#34;consolas&amp;#34; , &amp;#34;bitstream vera sans mono&amp;#34; , &amp;#34;courier new&amp;#34; , &amp;#34;courier&amp;#34; , monospace ; border-radius: 0px ; background: none ; border: 0px ; float: none ; height: auto ; line-height: 20px ; margin: 0px ; outline: 0px ; overflow: visible ; padding: 0px ; position: static ; vertical-align: baseline ; width: auto ; box-sizing: content-box ; min-height: inherit ; color: rgb(42 , 0 , 255)&quot;&gt;&quot;string&quot;&lt;/code&gt;&lt;code class=&quot;py plain&quot; style=&quot;font-family: &amp;#34;consolas&amp;#34; , &amp;#34;bitstream vera sans mono&amp;#34; , &amp;#34;courier new&amp;#34; , &amp;#34;courier&amp;#34; , monospace ; border-radius: 0px ; background: none ; border: 0px ; float: none ; height: auto ; line-height: 20px ; margin: 0px ; outline: 0px ; overflow: visible ; padding: 0px ; position: static ; vertical-align: baseline ; width: auto ; box-sizing: content-box ; min-height: inherit ; color: black&quot;&gt;,&lt;/code&gt;&lt;/div&gt;&lt;div class=&quot;line number5 index4 alt2&quot; style=&quot;margin: 0px ; padding: 0px 1em ; border-radius: 0px ; background: none rgb(255 , 255 , 255) ; border: 0px ; float: none ; height: auto ; line-height: 20px ; outline: 0px ; overflow: visible ; position: static ; text-align: left ; vertical-align: baseline ; width: auto ; box-sizing: content-box ; font-family: &amp;#34;consolas&amp;#34; , &amp;#34;bitstream vera sans mono&amp;#34; , &amp;#34;courier new&amp;#34; , &amp;#34;courier&amp;#34; , monospace ; font-size: 14px ; min-height: inherit ; color: rgb(51 , 51 , 51)&quot;&gt;&lt;code class=&quot;py spaces&quot; style=&quot;font-family: &amp;#34;consolas&amp;#34; , &amp;#34;bitstream vera sans mono&amp;#34; , &amp;#34;courier new&amp;#34; , &amp;#34;courier&amp;#34; , monospace ; border-radius: 0px ; background: none ; border: 0px ; float: none ; height: auto ; line-height: 20px ; margin: 0px ; outline: 0px ; overflow: visible ; padding: 0px ; position: static ; vertical-align: baseline ; width: auto ; box-sizing: content-box ; min-height: inherit&quot;&gt;&amp;nbsp;&amp;nbsp;&lt;/code&gt;&lt;code class=&quot;py string&quot; style=&quot;font-family: &amp;#34;consolas&amp;#34; , &amp;#34;bitstream vera sans mono&amp;#34; , &amp;#34;courier new&amp;#34; , &amp;#34;courier&amp;#34; , monospace ; border-radius: 0px ; background: none ; border: 0px ; float: none ; height: auto ; line-height: 20px ; margin: 0px ; outline: 0px ; overflow: visible ; padding: 0px ; position: static ; vertical-align: baseline ; width: auto ; box-sizing: content-box ; min-height: inherit ; color: rgb(42 , 0 , 255)&quot;&gt;&quot;tradeReferenceId&quot;&lt;/code&gt;&lt;code class=&quot;py plain&quot; style=&quot;font-family: &amp;#34;consolas&amp;#34; , &amp;#34;bitstream vera sans mono&amp;#34; , &amp;#34;courier new&amp;#34; , &amp;#34;courier&amp;#34; , monospace ; border-radius: 0px ; background: none ; border: 0px ; float: none ; height: auto ; line-height: 20px ; margin: 0px ; outline: 0px ; overflow: visible ; padding: 0px ; position: static ; vertical-align: baseline ; width: auto ; box-sizing: content-box ; min-height: inherit ; color: black&quot;&gt;:&amp;nbsp;&lt;/code&gt;&lt;code class=&quot;py string&quot; style=&quot;font-family: &amp;#34;consolas&amp;#34; , &amp;#34;bitstream vera sans mono&amp;#34; , &amp;#34;courier new&amp;#34; , &amp;#34;courier&amp;#34; , monospace ; border-radius: 0px ; background: none ; border: 0px ; float: none ; height: auto ; line-height: 20px ; margin: 0px ; outline: 0px ; overflow: visible ; padding: 0px ; position: static ; vertical-align: baseline ; width: auto ; box-sizing: content-box ; min-height: inherit ; color: rgb(42 , 0 , 255)&quot;&gt;&quot;string&quot;&lt;/code&gt;&lt;/div&gt;&lt;div class=&quot;line number6 index5 alt1&quot; style=&quot;margin: 0px ; padding: 0px 1em ; border-radius: 0px ; background: none rgb(255 , 255 , 255) ; border: 0px ; float: none ; height: auto ; line-height: 20px ; outline: 0px ; overflow: visible ; position: static ; text-align: left ; vertical-align: baseline ; width: auto ; box-sizing: content-box ; font-family: &amp;#34;consolas&amp;#34; , &amp;#34;bitstream vera sans mono&amp;#34; , &amp;#34;courier new&amp;#34; , &amp;#34;courier&amp;#34; , monospace ; font-size: 14px ; min-height: inherit ; color: rgb(51 , 51 , 51)&quot;&gt;&lt;code class=&quot;py plain&quot; style=&quot;font-family: &amp;#34;consolas&amp;#34; , &amp;#34;bitstream vera sans mono&amp;#34; , &amp;#34;courier new&amp;#34; , &amp;#34;courier&amp;#34; , monospace ; border-radius: 0px ; background: none ; border: 0px ; float: none ; height: auto ; line-height: 20px ; margin: 0px ; outline: 0px ; overflow: visible ; padding: 0px ; position: static ; vertical-align: baseline ; width: auto ; box-sizing: content-box ; min-height: inherit ; color: black&quot;&gt;}&lt;/code&gt;&lt;/div&gt;&lt;/blockquote&gt;" style="text;html=1;align=center;verticalAlign=middle;resizable=0;points=[];autosize=1;strokeColor=none;fillColor=none;" vertex="1" parent="1">
          <mxGeometry x="330" y="410" width="410" height="120" as="geometry" />
        </mxCell>
        <mxCell id="EoJ9KSqt0x2r-B0GxFmA-39" value="&lt;div class=&quot;line number1 index0 alt2&quot; style=&quot;margin: 0px ; padding: 0px 1em ; border-radius: 0px ; background: none rgb(255 , 255 , 255) ; border: 0px ; float: none ; height: auto ; line-height: 20px ; outline: 0px ; overflow: visible ; position: static ; text-align: left ; vertical-align: baseline ; width: auto ; box-sizing: content-box ; font-family: &amp;#34;consolas&amp;#34; , &amp;#34;bitstream vera sans mono&amp;#34; , &amp;#34;courier new&amp;#34; , &amp;#34;courier&amp;#34; , monospace ; font-size: 14px ; min-height: inherit ; color: rgb(51 , 51 , 51)&quot;&gt;&lt;code class=&quot;py plain&quot; style=&quot;font-family: &amp;#34;consolas&amp;#34; , &amp;#34;bitstream vera sans mono&amp;#34; , &amp;#34;courier new&amp;#34; , &amp;#34;courier&amp;#34; , monospace ; border-radius: 0px ; background: none ; border: 0px ; float: none ; height: auto ; line-height: 20px ; margin: 0px ; outline: 0px ; overflow: visible ; padding: 0px ; position: static ; vertical-align: baseline ; width: auto ; box-sizing: content-box ; min-height: inherit ; color: black&quot;&gt;{&lt;/code&gt;&lt;/div&gt;&lt;div class=&quot;line number2 index1 alt1&quot; style=&quot;margin: 0px ; padding: 0px 1em ; border-radius: 0px ; background: none rgb(255 , 255 , 255) ; border: 0px ; float: none ; height: auto ; line-height: 20px ; outline: 0px ; overflow: visible ; position: static ; text-align: left ; vertical-align: baseline ; width: auto ; box-sizing: content-box ; font-family: &amp;#34;consolas&amp;#34; , &amp;#34;bitstream vera sans mono&amp;#34; , &amp;#34;courier new&amp;#34; , &amp;#34;courier&amp;#34; , monospace ; font-size: 14px ; min-height: inherit ; color: rgb(51 , 51 , 51)&quot;&gt;&lt;code class=&quot;py spaces&quot; style=&quot;font-family: &amp;#34;consolas&amp;#34; , &amp;#34;bitstream vera sans mono&amp;#34; , &amp;#34;courier new&amp;#34; , &amp;#34;courier&amp;#34; , monospace ; border-radius: 0px ; background: none ; border: 0px ; float: none ; height: auto ; line-height: 20px ; margin: 0px ; outline: 0px ; overflow: visible ; padding: 0px ; position: static ; vertical-align: baseline ; width: auto ; box-sizing: content-box ; min-height: inherit&quot;&gt;&amp;nbsp;&amp;nbsp;&lt;/code&gt;&lt;code class=&quot;py string&quot; style=&quot;font-family: &amp;#34;consolas&amp;#34; , &amp;#34;bitstream vera sans mono&amp;#34; , &amp;#34;courier new&amp;#34; , &amp;#34;courier&amp;#34; , monospace ; border-radius: 0px ; background: none ; border: 0px ; float: none ; height: auto ; line-height: 20px ; margin: 0px ; outline: 0px ; overflow: visible ; padding: 0px ; position: static ; vertical-align: baseline ; width: auto ; box-sizing: content-box ; min-height: inherit ; color: rgb(42 , 0 , 255)&quot;&gt;&quot;product&quot;&lt;/code&gt;&lt;code class=&quot;py plain&quot; style=&quot;font-family: &amp;#34;consolas&amp;#34; , &amp;#34;bitstream vera sans mono&amp;#34; , &amp;#34;courier new&amp;#34; , &amp;#34;courier&amp;#34; , monospace ; border-radius: 0px ; background: none ; border: 0px ; float: none ; height: auto ; line-height: 20px ; margin: 0px ; outline: 0px ; overflow: visible ; padding: 0px ; position: static ; vertical-align: baseline ; width: auto ; box-sizing: content-box ; min-height: inherit ; color: black&quot;&gt;:&amp;nbsp;&lt;/code&gt;&lt;code class=&quot;py string&quot; style=&quot;font-family: &amp;#34;consolas&amp;#34; , &amp;#34;bitstream vera sans mono&amp;#34; , &amp;#34;courier new&amp;#34; , &amp;#34;courier&amp;#34; , monospace ; border-radius: 0px ; background: none ; border: 0px ; float: none ; height: auto ; line-height: 20px ; margin: 0px ; outline: 0px ; overflow: visible ; padding: 0px ; position: static ; vertical-align: baseline ; width: auto ; box-sizing: content-box ; min-height: inherit ; color: rgb(42 , 0 , 255)&quot;&gt;&quot;string&quot;&lt;/code&gt;&lt;code class=&quot;py plain&quot; style=&quot;font-family: &amp;#34;consolas&amp;#34; , &amp;#34;bitstream vera sans mono&amp;#34; , &amp;#34;courier new&amp;#34; , &amp;#34;courier&amp;#34; , monospace ; border-radius: 0px ; background: none ; border: 0px ; float: none ; height: auto ; line-height: 20px ; margin: 0px ; outline: 0px ; overflow: visible ; padding: 0px ; position: static ; vertical-align: baseline ; width: auto ; box-sizing: content-box ; min-height: inherit ; color: black&quot;&gt;,&lt;/code&gt;&lt;/div&gt;&lt;div class=&quot;line number3 index2 alt2&quot; style=&quot;margin: 0px ; padding: 0px 1em ; border-radius: 0px ; background: none rgb(255 , 255 , 255) ; border: 0px ; float: none ; height: auto ; line-height: 20px ; outline: 0px ; overflow: visible ; position: static ; text-align: left ; vertical-align: baseline ; width: auto ; box-sizing: content-box ; font-family: &amp;#34;consolas&amp;#34; , &amp;#34;bitstream vera sans mono&amp;#34; , &amp;#34;courier new&amp;#34; , &amp;#34;courier&amp;#34; , monospace ; font-size: 14px ; min-height: inherit ; color: rgb(51 , 51 , 51)&quot;&gt;&lt;code class=&quot;py spaces&quot; style=&quot;font-family: &amp;#34;consolas&amp;#34; , &amp;#34;bitstream vera sans mono&amp;#34; , &amp;#34;courier new&amp;#34; , &amp;#34;courier&amp;#34; , monospace ; border-radius: 0px ; background: none ; border: 0px ; float: none ; height: auto ; line-height: 20px ; margin: 0px ; outline: 0px ; overflow: visible ; padding: 0px ; position: static ; vertical-align: baseline ; width: auto ; box-sizing: content-box ; min-height: inherit&quot;&gt;&amp;nbsp;&amp;nbsp;&lt;/code&gt;&lt;code class=&quot;py string&quot; style=&quot;font-family: &amp;#34;consolas&amp;#34; , &amp;#34;bitstream vera sans mono&amp;#34; , &amp;#34;courier new&amp;#34; , &amp;#34;courier&amp;#34; , monospace ; border-radius: 0px ; background: none ; border: 0px ; float: none ; height: auto ; line-height: 20px ; margin: 0px ; outline: 0px ; overflow: visible ; padding: 0px ; position: static ; vertical-align: baseline ; width: auto ; box-sizing: content-box ; min-height: inherit ; color: rgb(42 , 0 , 255)&quot;&gt;&quot;tradeReferenceId&quot;&lt;/code&gt;&lt;code class=&quot;py plain&quot; style=&quot;font-family: &amp;#34;consolas&amp;#34; , &amp;#34;bitstream vera sans mono&amp;#34; , &amp;#34;courier new&amp;#34; , &amp;#34;courier&amp;#34; , monospace ; border-radius: 0px ; background: none ; border: 0px ; float: none ; height: auto ; line-height: 20px ; margin: 0px ; outline: 0px ; overflow: visible ; padding: 0px ; position: static ; vertical-align: baseline ; width: auto ; box-sizing: content-box ; min-height: inherit ; color: black&quot;&gt;:&amp;nbsp;&lt;/code&gt;&lt;code class=&quot;py string&quot; style=&quot;font-family: &amp;#34;consolas&amp;#34; , &amp;#34;bitstream vera sans mono&amp;#34; , &amp;#34;courier new&amp;#34; , &amp;#34;courier&amp;#34; , monospace ; border-radius: 0px ; background: none ; border: 0px ; float: none ; height: auto ; line-height: 20px ; margin: 0px ; outline: 0px ; overflow: visible ; padding: 0px ; position: static ; vertical-align: baseline ; width: auto ; box-sizing: content-box ; min-height: inherit ; color: rgb(42 , 0 , 255)&quot;&gt;&quot;string&quot;&lt;/code&gt;&lt;code class=&quot;py plain&quot; style=&quot;font-family: &amp;#34;consolas&amp;#34; , &amp;#34;bitstream vera sans mono&amp;#34; , &amp;#34;courier new&amp;#34; , &amp;#34;courier&amp;#34; , monospace ; border-radius: 0px ; background: none ; border: 0px ; float: none ; height: auto ; line-height: 20px ; margin: 0px ; outline: 0px ; overflow: visible ; padding: 0px ; position: static ; vertical-align: baseline ; width: auto ; box-sizing: content-box ; min-height: inherit ; color: black&quot;&gt;,&lt;/code&gt;&lt;/div&gt;&lt;div class=&quot;line number4 index3 alt1&quot; style=&quot;margin: 0px ; padding: 0px 1em ; border-radius: 0px ; background: none rgb(255 , 255 , 255) ; border: 0px ; float: none ; height: auto ; line-height: 20px ; outline: 0px ; overflow: visible ; position: static ; text-align: left ; vertical-align: baseline ; width: auto ; box-sizing: content-box ; font-family: &amp;#34;consolas&amp;#34; , &amp;#34;bitstream vera sans mono&amp;#34; , &amp;#34;courier new&amp;#34; , &amp;#34;courier&amp;#34; , monospace ; font-size: 14px ; min-height: inherit ; color: rgb(51 , 51 , 51)&quot;&gt;&lt;code class=&quot;py spaces&quot; style=&quot;font-family: &amp;#34;consolas&amp;#34; , &amp;#34;bitstream vera sans mono&amp;#34; , &amp;#34;courier new&amp;#34; , &amp;#34;courier&amp;#34; , monospace ; border-radius: 0px ; background: none ; border: 0px ; float: none ; height: auto ; line-height: 20px ; margin: 0px ; outline: 0px ; overflow: visible ; padding: 0px ; position: static ; vertical-align: baseline ; width: auto ; box-sizing: content-box ; min-height: inherit&quot;&gt;&amp;nbsp;&amp;nbsp;&lt;/code&gt;&lt;code class=&quot;py string&quot; style=&quot;font-family: &amp;#34;consolas&amp;#34; , &amp;#34;bitstream vera sans mono&amp;#34; , &amp;#34;courier new&amp;#34; , &amp;#34;courier&amp;#34; , monospace ; border-radius: 0px ; background: none ; border: 0px ; float: none ; height: auto ; line-height: 20px ; margin: 0px ; outline: 0px ; overflow: visible ; padding: 0px ; position: static ; vertical-align: baseline ; width: auto ; box-sizing: content-box ; min-height: inherit ; color: rgb(42 , 0 , 255)&quot;&gt;&quot;tradeSuppressionMessage&quot;&lt;/code&gt;&lt;code class=&quot;py plain&quot; style=&quot;font-family: &amp;#34;consolas&amp;#34; , &amp;#34;bitstream vera sans mono&amp;#34; , &amp;#34;courier new&amp;#34; , &amp;#34;courier&amp;#34; , monospace ; border-radius: 0px ; background: none ; border: 0px ; float: none ; height: auto ; line-height: 20px ; margin: 0px ; outline: 0px ; overflow: visible ; padding: 0px ; position: static ; vertical-align: baseline ; width: auto ; box-sizing: content-box ; min-height: inherit ; color: black&quot;&gt;: {&lt;/code&gt;&lt;/div&gt;&lt;div class=&quot;line number5 index4 alt2&quot; style=&quot;margin: 0px ; padding: 0px 1em ; border-radius: 0px ; background: none rgb(255 , 255 , 255) ; border: 0px ; float: none ; height: auto ; line-height: 20px ; outline: 0px ; overflow: visible ; position: static ; text-align: left ; vertical-align: baseline ; width: auto ; box-sizing: content-box ; font-family: &amp;#34;consolas&amp;#34; , &amp;#34;bitstream vera sans mono&amp;#34; , &amp;#34;courier new&amp;#34; , &amp;#34;courier&amp;#34; , monospace ; font-size: 14px ; min-height: inherit ; color: rgb(51 , 51 , 51)&quot;&gt;&lt;code class=&quot;py spaces&quot; style=&quot;font-family: &amp;#34;consolas&amp;#34; , &amp;#34;bitstream vera sans mono&amp;#34; , &amp;#34;courier new&amp;#34; , &amp;#34;courier&amp;#34; , monospace ; border-radius: 0px ; background: none ; border: 0px ; float: none ; height: auto ; line-height: 20px ; margin: 0px ; outline: 0px ; overflow: visible ; padding: 0px ; position: static ; vertical-align: baseline ; width: auto ; box-sizing: content-box ; min-height: inherit&quot;&gt;&amp;nbsp;&amp;nbsp;&amp;nbsp;&amp;nbsp;&lt;/code&gt;&lt;code class=&quot;py string&quot; style=&quot;font-family: &amp;#34;consolas&amp;#34; , &amp;#34;bitstream vera sans mono&amp;#34; , &amp;#34;courier new&amp;#34; , &amp;#34;courier&amp;#34; , monospace ; border-radius: 0px ; background: none ; border: 0px ; float: none ; height: auto ; line-height: 20px ; margin: 0px ; outline: 0px ; overflow: visible ; padding: 0px ; position: static ; vertical-align: baseline ; width: auto ; box-sizing: content-box ; min-height: inherit ; color: rgb(42 , 0 , 255)&quot;&gt;&quot;rules&quot;&lt;/code&gt;&lt;code class=&quot;py plain&quot; style=&quot;font-family: &amp;#34;consolas&amp;#34; , &amp;#34;bitstream vera sans mono&amp;#34; , &amp;#34;courier new&amp;#34; , &amp;#34;courier&amp;#34; , monospace ; border-radius: 0px ; background: none ; border: 0px ; float: none ; height: auto ; line-height: 20px ; margin: 0px ; outline: 0px ; overflow: visible ; padding: 0px ; position: static ; vertical-align: baseline ; width: auto ; box-sizing: content-box ; min-height: inherit ; color: black&quot;&gt;: [&lt;/code&gt;&lt;/div&gt;&lt;div class=&quot;line number6 index5 alt1&quot; style=&quot;margin: 0px ; padding: 0px 1em ; border-radius: 0px ; background: none rgb(255 , 255 , 255) ; border: 0px ; float: none ; height: auto ; line-height: 20px ; outline: 0px ; overflow: visible ; position: static ; text-align: left ; vertical-align: baseline ; width: auto ; box-sizing: content-box ; font-family: &amp;#34;consolas&amp;#34; , &amp;#34;bitstream vera sans mono&amp;#34; , &amp;#34;courier new&amp;#34; , &amp;#34;courier&amp;#34; , monospace ; font-size: 14px ; min-height: inherit ; color: rgb(51 , 51 , 51)&quot;&gt;&lt;code class=&quot;py spaces&quot; style=&quot;font-family: &amp;#34;consolas&amp;#34; , &amp;#34;bitstream vera sans mono&amp;#34; , &amp;#34;courier new&amp;#34; , &amp;#34;courier&amp;#34; , monospace ; border-radius: 0px ; background: none ; border: 0px ; float: none ; height: auto ; line-height: 20px ; margin: 0px ; outline: 0px ; overflow: visible ; padding: 0px ; position: static ; vertical-align: baseline ; width: auto ; box-sizing: content-box ; min-height: inherit&quot;&gt;&amp;nbsp;&amp;nbsp;&amp;nbsp;&amp;nbsp;&amp;nbsp;&amp;nbsp;&lt;/code&gt;&lt;code class=&quot;py plain&quot; style=&quot;font-family: &amp;#34;consolas&amp;#34; , &amp;#34;bitstream vera sans mono&amp;#34; , &amp;#34;courier new&amp;#34; , &amp;#34;courier&amp;#34; , monospace ; border-radius: 0px ; background: none ; border: 0px ; float: none ; height: auto ; line-height: 20px ; margin: 0px ; outline: 0px ; overflow: visible ; padding: 0px ; position: static ; vertical-align: baseline ; width: auto ; box-sizing: content-box ; min-height: inherit ; color: black&quot;&gt;{&lt;/code&gt;&lt;/div&gt;&lt;div class=&quot;line number7 index6 alt2&quot; style=&quot;margin: 0px ; padding: 0px 1em ; border-radius: 0px ; background: none rgb(255 , 255 , 255) ; border: 0px ; float: none ; height: auto ; line-height: 20px ; outline: 0px ; overflow: visible ; position: static ; text-align: left ; vertical-align: baseline ; width: auto ; box-sizing: content-box ; font-family: &amp;#34;consolas&amp;#34; , &amp;#34;bitstream vera sans mono&amp;#34; , &amp;#34;courier new&amp;#34; , &amp;#34;courier&amp;#34; , monospace ; font-size: 14px ; min-height: inherit ; color: rgb(51 , 51 , 51)&quot;&gt;&lt;code class=&quot;py spaces&quot; style=&quot;font-family: &amp;#34;consolas&amp;#34; , &amp;#34;bitstream vera sans mono&amp;#34; , &amp;#34;courier new&amp;#34; , &amp;#34;courier&amp;#34; , monospace ; border-radius: 0px ; background: none ; border: 0px ; float: none ; height: auto ; line-height: 20px ; margin: 0px ; outline: 0px ; overflow: visible ; padding: 0px ; position: static ; vertical-align: baseline ; width: auto ; box-sizing: content-box ; min-height: inherit&quot;&gt;&amp;nbsp;&amp;nbsp;&amp;nbsp;&amp;nbsp;&amp;nbsp;&amp;nbsp;&amp;nbsp;&amp;nbsp;&lt;/code&gt;&lt;code class=&quot;py string&quot; style=&quot;font-family: &amp;#34;consolas&amp;#34; , &amp;#34;bitstream vera sans mono&amp;#34; , &amp;#34;courier new&amp;#34; , &amp;#34;courier&amp;#34; , monospace ; border-radius: 0px ; background: none ; border: 0px ; float: none ; height: auto ; line-height: 20px ; margin: 0px ; outline: 0px ; overflow: visible ; padding: 0px ; position: static ; vertical-align: baseline ; width: auto ; box-sizing: content-box ; min-height: inherit ; color: rgb(42 , 0 , 255)&quot;&gt;&quot;ruleDescription&quot;&lt;/code&gt;&lt;code class=&quot;py plain&quot; style=&quot;font-family: &amp;#34;consolas&amp;#34; , &amp;#34;bitstream vera sans mono&amp;#34; , &amp;#34;courier new&amp;#34; , &amp;#34;courier&amp;#34; , monospace ; border-radius: 0px ; background: none ; border: 0px ; float: none ; height: auto ; line-height: 20px ; margin: 0px ; outline: 0px ; overflow: visible ; padding: 0px ; position: static ; vertical-align: baseline ; width: auto ; box-sizing: content-box ; min-height: inherit ; color: black&quot;&gt;:&amp;nbsp;&lt;/code&gt;&lt;code class=&quot;py string&quot; style=&quot;font-family: &amp;#34;consolas&amp;#34; , &amp;#34;bitstream vera sans mono&amp;#34; , &amp;#34;courier new&amp;#34; , &amp;#34;courier&amp;#34; , monospace ; border-radius: 0px ; background: none ; border: 0px ; float: none ; height: auto ; line-height: 20px ; margin: 0px ; outline: 0px ; overflow: visible ; padding: 0px ; position: static ; vertical-align: baseline ; width: auto ; box-sizing: content-box ; min-height: inherit ; color: rgb(42 , 0 , 255)&quot;&gt;&quot;string&quot;&lt;/code&gt;&lt;code class=&quot;py plain&quot; style=&quot;font-family: &amp;#34;consolas&amp;#34; , &amp;#34;bitstream vera sans mono&amp;#34; , &amp;#34;courier new&amp;#34; , &amp;#34;courier&amp;#34; , monospace ; border-radius: 0px ; background: none ; border: 0px ; float: none ; height: auto ; line-height: 20px ; margin: 0px ; outline: 0px ; overflow: visible ; padding: 0px ; position: static ; vertical-align: baseline ; width: auto ; box-sizing: content-box ; min-height: inherit ; color: black&quot;&gt;,&lt;/code&gt;&lt;/div&gt;&lt;div class=&quot;line number8 index7 alt1&quot; style=&quot;margin: 0px ; padding: 0px 1em ; border-radius: 0px ; background: none rgb(255 , 255 , 255) ; border: 0px ; float: none ; height: auto ; line-height: 20px ; outline: 0px ; overflow: visible ; position: static ; text-align: left ; vertical-align: baseline ; width: auto ; box-sizing: content-box ; font-family: &amp;#34;consolas&amp;#34; , &amp;#34;bitstream vera sans mono&amp;#34; , &amp;#34;courier new&amp;#34; , &amp;#34;courier&amp;#34; , monospace ; font-size: 14px ; min-height: inherit ; color: rgb(51 , 51 , 51)&quot;&gt;&lt;code class=&quot;py spaces&quot; style=&quot;font-family: &amp;#34;consolas&amp;#34; , &amp;#34;bitstream vera sans mono&amp;#34; , &amp;#34;courier new&amp;#34; , &amp;#34;courier&amp;#34; , monospace ; border-radius: 0px ; background: none ; border: 0px ; float: none ; height: auto ; line-height: 20px ; margin: 0px ; outline: 0px ; overflow: visible ; padding: 0px ; position: static ; vertical-align: baseline ; width: auto ; box-sizing: content-box ; min-height: inherit&quot;&gt;&amp;nbsp;&amp;nbsp;&amp;nbsp;&amp;nbsp;&amp;nbsp;&amp;nbsp;&amp;nbsp;&amp;nbsp;&lt;/code&gt;&lt;code class=&quot;py string&quot; style=&quot;font-family: &amp;#34;consolas&amp;#34; , &amp;#34;bitstream vera sans mono&amp;#34; , &amp;#34;courier new&amp;#34; , &amp;#34;courier&amp;#34; , monospace ; border-radius: 0px ; background: none ; border: 0px ; float: none ; height: auto ; line-height: 20px ; margin: 0px ; outline: 0px ; overflow: visible ; padding: 0px ; position: static ; vertical-align: baseline ; width: auto ; box-sizing: content-box ; min-height: inherit ; color: rgb(42 , 0 , 255)&quot;&gt;&quot;ruleName&quot;&lt;/code&gt;&lt;code class=&quot;py plain&quot; style=&quot;font-family: &amp;#34;consolas&amp;#34; , &amp;#34;bitstream vera sans mono&amp;#34; , &amp;#34;courier new&amp;#34; , &amp;#34;courier&amp;#34; , monospace ; border-radius: 0px ; background: none ; border: 0px ; float: none ; height: auto ; line-height: 20px ; margin: 0px ; outline: 0px ; overflow: visible ; padding: 0px ; position: static ; vertical-align: baseline ; width: auto ; box-sizing: content-box ; min-height: inherit ; color: black&quot;&gt;:&amp;nbsp;&lt;/code&gt;&lt;code class=&quot;py string&quot; style=&quot;font-family: &amp;#34;consolas&amp;#34; , &amp;#34;bitstream vera sans mono&amp;#34; , &amp;#34;courier new&amp;#34; , &amp;#34;courier&amp;#34; , monospace ; border-radius: 0px ; background: none ; border: 0px ; float: none ; height: auto ; line-height: 20px ; margin: 0px ; outline: 0px ; overflow: visible ; padding: 0px ; position: static ; vertical-align: baseline ; width: auto ; box-sizing: content-box ; min-height: inherit ; color: rgb(42 , 0 , 255)&quot;&gt;&quot;string&quot;&lt;/code&gt;&lt;code class=&quot;py plain&quot; style=&quot;font-family: &amp;#34;consolas&amp;#34; , &amp;#34;bitstream vera sans mono&amp;#34; , &amp;#34;courier new&amp;#34; , &amp;#34;courier&amp;#34; , monospace ; border-radius: 0px ; background: none ; border: 0px ; float: none ; height: auto ; line-height: 20px ; margin: 0px ; outline: 0px ; overflow: visible ; padding: 0px ; position: static ; vertical-align: baseline ; width: auto ; box-sizing: content-box ; min-height: inherit ; color: black&quot;&gt;,&lt;/code&gt;&lt;/div&gt;&lt;div class=&quot;line number9 index8 alt2&quot; style=&quot;margin: 0px ; padding: 0px 1em ; border-radius: 0px ; background: none rgb(255 , 255 , 255) ; border: 0px ; float: none ; height: auto ; line-height: 20px ; outline: 0px ; overflow: visible ; position: static ; text-align: left ; vertical-align: baseline ; width: auto ; box-sizing: content-box ; font-family: &amp;#34;consolas&amp;#34; , &amp;#34;bitstream vera sans mono&amp;#34; , &amp;#34;courier new&amp;#34; , &amp;#34;courier&amp;#34; , monospace ; font-size: 14px ; min-height: inherit ; color: rgb(51 , 51 , 51)&quot;&gt;&lt;code class=&quot;py spaces&quot; style=&quot;font-family: &amp;#34;consolas&amp;#34; , &amp;#34;bitstream vera sans mono&amp;#34; , &amp;#34;courier new&amp;#34; , &amp;#34;courier&amp;#34; , monospace ; border-radius: 0px ; background: none ; border: 0px ; float: none ; height: auto ; line-height: 20px ; margin: 0px ; outline: 0px ; overflow: visible ; padding: 0px ; position: static ; vertical-align: baseline ; width: auto ; box-sizing: content-box ; min-height: inherit&quot;&gt;&amp;nbsp;&amp;nbsp;&amp;nbsp;&amp;nbsp;&amp;nbsp;&amp;nbsp;&amp;nbsp;&amp;nbsp;&lt;/code&gt;&lt;code class=&quot;py string&quot; style=&quot;font-family: &amp;#34;consolas&amp;#34; , &amp;#34;bitstream vera sans mono&amp;#34; , &amp;#34;courier new&amp;#34; , &amp;#34;courier&amp;#34; , monospace ; border-radius: 0px ; background: none ; border: 0px ; float: none ; height: auto ; line-height: 20px ; margin: 0px ; outline: 0px ; overflow: visible ; padding: 0px ; position: static ; vertical-align: baseline ; width: auto ; box-sizing: content-box ; min-height: inherit ; color: rgb(42 , 0 , 255)&quot;&gt;&quot;ruleType&quot;&lt;/code&gt;&lt;code class=&quot;py plain&quot; style=&quot;font-family: &amp;#34;consolas&amp;#34; , &amp;#34;bitstream vera sans mono&amp;#34; , &amp;#34;courier new&amp;#34; , &amp;#34;courier&amp;#34; , monospace ; border-radius: 0px ; background: none ; border: 0px ; float: none ; height: auto ; line-height: 20px ; margin: 0px ; outline: 0px ; overflow: visible ; padding: 0px ; position: static ; vertical-align: baseline ; width: auto ; box-sizing: content-box ; min-height: inherit ; color: black&quot;&gt;:&amp;nbsp;&lt;/code&gt;&lt;code class=&quot;py string&quot; style=&quot;font-family: &amp;#34;consolas&amp;#34; , &amp;#34;bitstream vera sans mono&amp;#34; , &amp;#34;courier new&amp;#34; , &amp;#34;courier&amp;#34; , monospace ; border-radius: 0px ; background: none ; border: 0px ; float: none ; height: auto ; line-height: 20px ; margin: 0px ; outline: 0px ; overflow: visible ; padding: 0px ; position: static ; vertical-align: baseline ; width: auto ; box-sizing: content-box ; min-height: inherit ; color: rgb(42 , 0 , 255)&quot;&gt;&quot;string&quot;&lt;/code&gt;&lt;/div&gt;&lt;div class=&quot;line number10 index9 alt1&quot; style=&quot;margin: 0px ; padding: 0px 1em ; border-radius: 0px ; background: none rgb(255 , 255 , 255) ; border: 0px ; float: none ; height: auto ; line-height: 20px ; outline: 0px ; overflow: visible ; position: static ; text-align: left ; vertical-align: baseline ; width: auto ; box-sizing: content-box ; font-family: &amp;#34;consolas&amp;#34; , &amp;#34;bitstream vera sans mono&amp;#34; , &amp;#34;courier new&amp;#34; , &amp;#34;courier&amp;#34; , monospace ; font-size: 14px ; min-height: inherit ; color: rgb(51 , 51 , 51)&quot;&gt;&lt;code class=&quot;py spaces&quot; style=&quot;font-family: &amp;#34;consolas&amp;#34; , &amp;#34;bitstream vera sans mono&amp;#34; , &amp;#34;courier new&amp;#34; , &amp;#34;courier&amp;#34; , monospace ; border-radius: 0px ; background: none ; border: 0px ; float: none ; height: auto ; line-height: 20px ; margin: 0px ; outline: 0px ; overflow: visible ; padding: 0px ; position: static ; vertical-align: baseline ; width: auto ; box-sizing: content-box ; min-height: inherit&quot;&gt;&amp;nbsp;&amp;nbsp;&amp;nbsp;&amp;nbsp;&amp;nbsp;&amp;nbsp;&lt;/code&gt;&lt;code class=&quot;py plain&quot; style=&quot;font-family: &amp;#34;consolas&amp;#34; , &amp;#34;bitstream vera sans mono&amp;#34; , &amp;#34;courier new&amp;#34; , &amp;#34;courier&amp;#34; , monospace ; border-radius: 0px ; background: none ; border: 0px ; float: none ; height: auto ; line-height: 20px ; margin: 0px ; outline: 0px ; overflow: visible ; padding: 0px ; position: static ; vertical-align: baseline ; width: auto ; box-sizing: content-box ; min-height: inherit ; color: black&quot;&gt;}&lt;/code&gt;&lt;/div&gt;&lt;div class=&quot;line number11 index10 alt2&quot; style=&quot;margin: 0px ; padding: 0px 1em ; border-radius: 0px ; background: none rgb(255 , 255 , 255) ; border: 0px ; float: none ; height: auto ; line-height: 20px ; outline: 0px ; overflow: visible ; position: static ; text-align: left ; vertical-align: baseline ; width: auto ; box-sizing: content-box ; font-family: &amp;#34;consolas&amp;#34; , &amp;#34;bitstream vera sans mono&amp;#34; , &amp;#34;courier new&amp;#34; , &amp;#34;courier&amp;#34; , monospace ; font-size: 14px ; min-height: inherit ; color: rgb(51 , 51 , 51)&quot;&gt;&lt;code class=&quot;py spaces&quot; style=&quot;font-family: &amp;#34;consolas&amp;#34; , &amp;#34;bitstream vera sans mono&amp;#34; , &amp;#34;courier new&amp;#34; , &amp;#34;courier&amp;#34; , monospace ; border-radius: 0px ; background: none ; border: 0px ; float: none ; height: auto ; line-height: 20px ; margin: 0px ; outline: 0px ; overflow: visible ; padding: 0px ; position: static ; vertical-align: baseline ; width: auto ; box-sizing: content-box ; min-height: inherit&quot;&gt;&amp;nbsp;&amp;nbsp;&amp;nbsp;&amp;nbsp;&lt;/code&gt;&lt;code class=&quot;py plain&quot; style=&quot;font-family: &amp;#34;consolas&amp;#34; , &amp;#34;bitstream vera sans mono&amp;#34; , &amp;#34;courier new&amp;#34; , &amp;#34;courier&amp;#34; , monospace ; border-radius: 0px ; background: none ; border: 0px ; float: none ; height: auto ; line-height: 20px ; margin: 0px ; outline: 0px ; overflow: visible ; padding: 0px ; position: static ; vertical-align: baseline ; width: auto ; box-sizing: content-box ; min-height: inherit ; color: black&quot;&gt;],&lt;/code&gt;&lt;/div&gt;&lt;div class=&quot;line number12 index11 alt1&quot; style=&quot;margin: 0px ; padding: 0px 1em ; border-radius: 0px ; background: none rgb(255 , 255 , 255) ; border: 0px ; float: none ; height: auto ; line-height: 20px ; outline: 0px ; overflow: visible ; position: static ; text-align: left ; vertical-align: baseline ; width: auto ; box-sizing: content-box ; font-family: &amp;#34;consolas&amp;#34; , &amp;#34;bitstream vera sans mono&amp;#34; , &amp;#34;courier new&amp;#34; , &amp;#34;courier&amp;#34; , monospace ; font-size: 14px ; min-height: inherit ; color: rgb(51 , 51 , 51)&quot;&gt;&lt;code class=&quot;py spaces&quot; style=&quot;font-family: &amp;#34;consolas&amp;#34; , &amp;#34;bitstream vera sans mono&amp;#34; , &amp;#34;courier new&amp;#34; , &amp;#34;courier&amp;#34; , monospace ; border-radius: 0px ; background: none ; border: 0px ; float: none ; height: auto ; line-height: 20px ; margin: 0px ; outline: 0px ; overflow: visible ; padding: 0px ; position: static ; vertical-align: baseline ; width: auto ; box-sizing: content-box ; min-height: inherit&quot;&gt;&amp;nbsp;&amp;nbsp;&amp;nbsp;&amp;nbsp;&lt;/code&gt;&lt;code class=&quot;py string&quot; style=&quot;font-family: &amp;#34;consolas&amp;#34; , &amp;#34;bitstream vera sans mono&amp;#34; , &amp;#34;courier new&amp;#34; , &amp;#34;courier&amp;#34; , monospace ; border-radius: 0px ; background: none ; border: 0px ; float: none ; height: auto ; line-height: 20px ; margin: 0px ; outline: 0px ; overflow: visible ; padding: 0px ; position: static ; vertical-align: baseline ; width: auto ; box-sizing: content-box ; min-height: inherit ; color: rgb(42 , 0 , 255)&quot;&gt;&quot;suppresionType&quot;&lt;/code&gt;&lt;code class=&quot;py plain&quot; style=&quot;font-family: &amp;#34;consolas&amp;#34; , &amp;#34;bitstream vera sans mono&amp;#34; , &amp;#34;courier new&amp;#34; , &amp;#34;courier&amp;#34; , monospace ; border-radius: 0px ; background: none ; border: 0px ; float: none ; height: auto ; line-height: 20px ; margin: 0px ; outline: 0px ; overflow: visible ; padding: 0px ; position: static ; vertical-align: baseline ; width: auto ; box-sizing: content-box ; min-height: inherit ; color: black&quot;&gt;:&amp;nbsp;&lt;/code&gt;&lt;code class=&quot;py string&quot; style=&quot;font-family: &amp;#34;consolas&amp;#34; , &amp;#34;bitstream vera sans mono&amp;#34; , &amp;#34;courier new&amp;#34; , &amp;#34;courier&amp;#34; , monospace ; border-radius: 0px ; background: none ; border: 0px ; float: none ; height: auto ; line-height: 20px ; margin: 0px ; outline: 0px ; overflow: visible ; padding: 0px ; position: static ; vertical-align: baseline ; width: auto ; box-sizing: content-box ; min-height: inherit ; color: rgb(42 , 0 , 255)&quot;&gt;&quot;string&quot;&lt;/code&gt;&lt;/div&gt;&lt;div class=&quot;line number13 index12 alt2&quot; style=&quot;margin: 0px ; padding: 0px 1em ; border-radius: 0px ; background: none rgb(255 , 255 , 255) ; border: 0px ; float: none ; height: auto ; line-height: 20px ; outline: 0px ; overflow: visible ; position: static ; text-align: left ; vertical-align: baseline ; width: auto ; box-sizing: content-box ; font-family: &amp;#34;consolas&amp;#34; , &amp;#34;bitstream vera sans mono&amp;#34; , &amp;#34;courier new&amp;#34; , &amp;#34;courier&amp;#34; , monospace ; font-size: 14px ; min-height: inherit ; color: rgb(51 , 51 , 51)&quot;&gt;&lt;code class=&quot;py spaces&quot; style=&quot;font-family: &amp;#34;consolas&amp;#34; , &amp;#34;bitstream vera sans mono&amp;#34; , &amp;#34;courier new&amp;#34; , &amp;#34;courier&amp;#34; , monospace ; border-radius: 0px ; background: none ; border: 0px ; float: none ; height: auto ; line-height: 20px ; margin: 0px ; outline: 0px ; overflow: visible ; padding: 0px ; position: static ; vertical-align: baseline ; width: auto ; box-sizing: content-box ; min-height: inherit&quot;&gt;&amp;nbsp;&amp;nbsp;&lt;/code&gt;&lt;code class=&quot;py plain&quot; style=&quot;font-family: &amp;#34;consolas&amp;#34; , &amp;#34;bitstream vera sans mono&amp;#34; , &amp;#34;courier new&amp;#34; , &amp;#34;courier&amp;#34; , monospace ; border-radius: 0px ; background: none ; border: 0px ; float: none ; height: auto ; line-height: 20px ; margin: 0px ; outline: 0px ; overflow: visible ; padding: 0px ; position: static ; vertical-align: baseline ; width: auto ; box-sizing: content-box ; min-height: inherit ; color: black&quot;&gt;}&lt;/code&gt;&lt;/div&gt;&lt;div class=&quot;line number14 index13 alt1&quot; style=&quot;margin: 0px ; padding: 0px 1em ; border-radius: 0px ; background: none rgb(255 , 255 , 255) ; border: 0px ; float: none ; height: auto ; line-height: 20px ; outline: 0px ; overflow: visible ; position: static ; text-align: left ; vertical-align: baseline ; width: auto ; box-sizing: content-box ; font-family: &amp;#34;consolas&amp;#34; , &amp;#34;bitstream vera sans mono&amp;#34; , &amp;#34;courier new&amp;#34; , &amp;#34;courier&amp;#34; , monospace ; font-size: 14px ; min-height: inherit ; color: rgb(51 , 51 , 51)&quot;&gt;&lt;code class=&quot;py plain&quot; style=&quot;font-family: &amp;#34;consolas&amp;#34; , &amp;#34;bitstream vera sans mono&amp;#34; , &amp;#34;courier new&amp;#34; , &amp;#34;courier&amp;#34; , monospace ; border-radius: 0px ; background: none ; border: 0px ; float: none ; height: auto ; line-height: 20px ; margin: 0px ; outline: 0px ; overflow: visible ; padding: 0px ; position: static ; vertical-align: baseline ; width: auto ; box-sizing: content-box ; min-height: inherit ; color: black&quot;&gt;}&lt;/code&gt;&lt;/div&gt;" style="text;html=1;align=center;verticalAlign=middle;resizable=0;points=[];autosize=1;strokeColor=none;fillColor=none;" vertex="1" parent="1">
          <mxGeometry x="820" y="280" width="320" height="280" as="geometry" />
        </mxCell>
      </root>
    </mxGraphModel>
  </diagram>
</mxfile>
